<svg version="1.1" id="Layer_1" xmlns="http://www.w3.org/2000/svg" xmlns:xlink="http://www.w3.org/1999/xlink" x="0px" y="0px"
	 width="100%" viewBox="0 0 212 238" enable-background="new 0 0 212 238" xml:space="preserve">
<path fill="#649AD2" opacity="1.000000" stroke="none" 
	d="
M102.000000,1.000000 
	C105.030594,1.000000 108.061188,1.000000 111.723213,1.304473 
	C113.579056,2.111754 114.879227,2.482751 116.016800,3.136628 
	C145.089905,19.847734 174.188400,36.515923 203.137756,53.439148 
	C205.947647,55.081757 207.817017,58.333252 209.783569,60.958870 
	C195.603363,69.017479 181.762558,76.955139 167.853180,84.561523 
	C146.911713,48.563519 99.633034,38.638191 65.761139,62.843441 
	C38.374573,82.414207 26.359282,120.937447 45.622742,155.856415 
	C44.076721,156.486206 42.874119,157.049942 41.720131,157.699997 
	C29.126234,164.794022 16.539938,171.901566 3.682361,178.832581 
	C2.608760,177.439804 1.804379,176.219894 0.999999,175.000000 
	C1.000000,138.645767 1.000000,102.291542 1.299615,65.299179 
	C4.973380,60.693665 7.602427,55.464321 11.841323,52.961529 
	C41.708702,35.326820 71.907227,18.252962 102.000000,1.000000 
z"/>
<path fill="#014482" opacity="1.000000" stroke="none" 
	d="
M3.951583,179.005447 
	C16.539938,171.901566 29.126234,164.794022 41.720131,157.699997 
	C42.874119,157.049942 44.076721,156.486206 45.831802,156.140167 
	C53.045673,163.735870 58.543060,172.812927 66.549210,178.067566 
	C86.202385,190.966400 107.991508,194.622879 130.744751,186.321747 
	C146.881378,180.434555 159.744476,170.456757 168.226074,155.177094 
	C182.411102,163.235977 196.291107,171.134048 210.110718,179.377716 
	C207.314255,182.303970 204.939240,185.494049 201.782333,187.364410 
	C183.918777,197.948105 165.912872,208.294678 147.865005,218.563065 
	C135.653702,225.510757 123.293571,232.196899 111.000000,239.000000 
	C108.299988,239.000000 105.599968,239.000000 102.271202,238.694855 
	C100.416115,237.881805 99.115128,237.503616 97.974358,236.847046 
	C68.737167,220.019852 39.475697,203.233673 10.362819,186.193680 
	C7.726470,184.650604 6.065511,181.441086 3.951583,179.005447 
z"/>
<path fill="#FEFEFE" opacity="1.000000" stroke="none" 
	d="
M111.468658,239.000000 
	C123.293571,232.196899 135.653702,225.510757 147.865005,218.563065 
	C165.912872,208.294678 183.918777,197.948105 201.782333,187.364410 
	C204.939240,185.494049 207.314255,182.303970 210.387833,179.190796 
	C211.186600,177.177979 211.647903,175.697708 212.334854,174.175201 
	C212.560516,174.132996 213.000000,174.000000 213.000000,174.000000 
	C213.000000,195.609756 213.000000,217.219513 213.000000,239.000000 
	C179.312637,239.000000 145.624969,239.000000 111.468658,239.000000 
z"/>
<path fill="#FEFEFE" opacity="1.000000" stroke="none" 
	d="
M3.682363,178.832581 
	C6.065511,181.441086 7.726470,184.650604 10.362819,186.193680 
	C39.475697,203.233673 68.737167,220.019852 97.974358,236.847046 
	C99.115128,237.503616 100.416115,237.881805 101.821228,238.694855 
	C68.422829,239.000000 34.845665,239.000000 1.000000,239.000000 
	C1.000000,217.979874 1.000000,196.958588 0.999999,175.468658 
	C1.804379,176.219894 2.608760,177.439804 3.682363,178.832581 
z"/>
<path fill="#FEFEFF" opacity="1.000000" stroke="none" 
	d="
M210.122971,60.837914 
	C207.817017,58.333252 205.947647,55.081757 203.137756,53.439148 
	C174.188400,36.515923 145.089905,19.847734 116.016800,3.136628 
	C114.879227,2.482751 113.579056,2.111754 112.177322,1.304473 
	C145.577713,1.000000 179.155411,1.000000 213.000000,1.000000 
	C213.000000,22.353487 213.000000,43.708084 212.781616,65.461990 
	C212.563248,65.861305 212.111389,65.785080 212.128082,65.440399 
	C211.470840,63.676456 210.796906,62.257187 210.122971,60.837914 
z"/>
<path fill="#FEFEFF" opacity="1.000000" stroke="none" 
	d="
M101.531342,1.000000 
	C71.907227,18.252962 41.708702,35.326820 11.841323,52.961529 
	C7.602427,55.464321 4.973380,60.693665 1.299615,64.830521 
	C1.000000,43.723377 1.000000,22.446753 1.000000,1.000000 
	C34.354034,1.000000 67.708359,1.000000 101.531342,1.000000 
z"/>
<path fill="#0C5FA0" opacity="1.000000" stroke="none" 
	d="
M212.111389,65.785080 
	C212.111389,65.785080 212.563248,65.861305 212.781616,65.930649 
	C213.000000,101.687561 213.000000,137.375122 213.000000,173.531342 
	C213.000000,174.000000 212.560516,174.132996 212.295074,173.694351 
	C212.056885,137.432159 212.084137,101.608620 212.111389,65.785080 
z"/>
<path fill="#FDFEFE" opacity="1.000000" stroke="none" 
	d="
M167.921036,155.016281 
	C159.744476,170.456757 146.881378,180.434555 130.744751,186.321747 
	C107.991508,194.622879 86.202385,190.966400 66.549210,178.067566 
	C58.543060,172.812927 53.045673,163.735870 46.197796,156.114182 
	C26.359282,120.937447 38.374573,82.414207 65.761139,62.843441 
	C99.633034,38.638191 146.911713,48.563519 167.544098,84.715927 
	C157.204636,90.835876 147.105713,96.470154 136.965851,101.756752 
	C128.285706,87.932930 115.588058,83.358696 100.327187,85.422638 
	C77.312874,88.535187 63.932747,117.800453 76.603836,137.405457 
	C90.390602,160.941940 123.234818,161.087646 137.465805,138.006317 
	C147.855682,143.667679 157.888367,149.341980 167.921036,155.016281 
z"/>
<path fill="#01589C" opacity="1.000000" stroke="none" 
	d="
M168.226074,155.177094 
	C157.888367,149.341980 147.855682,143.667679 137.267059,137.724854 
	C135.329239,136.566620 133.966934,135.644623 132.562256,134.792511 
	C124.358482,129.815948 116.144783,124.855789 108.144112,119.625755 
	C110.475800,118.098961 112.604523,116.847633 114.718575,115.571968 
	C122.150703,111.087303 129.577789,106.594284 137.006790,102.104431 
	C147.105713,96.470154 157.204636,90.835876 167.612671,85.047195 
	C181.762558,76.955139 195.603363,69.017479 209.783569,60.958870 
	C210.796906,62.257187 211.470840,63.676456 212.128082,65.440399 
	C212.084137,101.608620 212.056885,137.432159 212.069412,173.736572 
	C211.647903,175.697708 211.186600,177.177979 210.448212,178.845184 
	C196.291107,171.134048 182.411102,163.235977 168.226074,155.177094 
z"/>
<path fill="#649AD2" opacity="1.000000" stroke="none" 
	d="
M136.965851,101.756744 
	C129.577789,106.594284 122.150703,111.087303 114.718575,115.571968 
	C112.604523,116.847633 110.475800,118.098961 107.803040,119.715012 
	C105.661728,120.945244 104.070374,121.820496 102.480721,122.698807 
	C93.817566,127.485313 85.154831,132.272552 76.491959,137.059555 
	C63.932747,117.800453 77.312874,88.535187 100.327187,85.422638 
	C115.588058,83.358696 128.285706,87.932930 136.965851,101.756744 
z"/>
<path fill="#024482" opacity="1.000000" stroke="none" 
	d="
M76.603836,137.405457 
	C85.154831,132.272552 93.817566,127.485313 102.480721,122.698807 
	C104.070374,121.820496 105.661728,120.945244 107.593369,119.979324 
	C116.144783,124.855789 124.358482,129.815948 132.562256,134.792511 
	C133.966934,135.644623 135.329239,136.566620 136.909851,137.737793 
	C123.234818,161.087646 90.390602,160.941940 76.603836,137.405457 
z"/>
</svg>