<svg version="1.1" id="Layer_1" xmlns="http://www.w3.org/2000/svg" xmlns:xlink="http://www.w3.org/1999/xlink" x="0px" y="0px"
	 width="100%" viewBox="0 0 224 225" enable-background="new 0 0 224 225" xml:space="preserve">
<path fill="#010101" opacity="1.000000" stroke="none" 
	d="
M225.000000,129.000000 
	C225.000000,161.259109 225.000000,193.518219 225.000000,226.000000 
	C193.979462,226.000000 162.958389,226.000000 131.198318,225.658325 
	C131.347260,224.931198 132.213455,224.482239 133.126434,224.170059 
	C143.230087,220.715012 153.759247,218.168411 163.356781,213.644012 
	C179.769623,205.906754 192.839447,193.821640 203.554260,179.104950 
	C214.219696,164.456085 221.056900,148.394180 223.151978,130.346207 
	C223.211563,129.832886 224.359528,129.445908 225.000000,129.000000 
z"/>
<path fill="#020202" opacity="1.000000" stroke="none" 
	d="
M132.000000,1.000002 
	C162.928833,1.000000 193.857681,1.000000 225.000000,1.000000 
	C225.000000,33.353916 225.000000,65.708298 224.745758,98.857193 
	C224.004486,99.404732 223.517487,99.157761 222.979095,98.528107 
	C222.578217,96.442009 222.228714,94.738579 221.950439,92.679527 
	C221.967422,90.526855 222.223053,88.655273 221.811462,86.944191 
	C217.208069,67.806961 208.273483,50.950249 194.799713,36.573238 
	C178.384537,19.057669 158.286209,8.088326 134.870850,3.026002 
	C133.817139,2.798195 132.952621,1.695302 132.000000,1.000002 
z"/>
<path fill="#010101" opacity="1.000000" stroke="none" 
	d="
M93.000000,226.000000 
	C62.406414,226.000000 31.812832,226.000000 1.000000,226.000000 
	C1.000000,195.646118 1.000000,165.291718 1.283822,134.068253 
	C2.387799,135.584167 3.427545,137.918228 3.994019,140.362015 
	C9.442317,163.866013 21.635639,183.380737 39.700062,199.059113 
	C54.471409,211.879379 71.672333,220.241730 90.984909,224.040329 
	C91.755280,224.191849 92.332680,225.324493 93.000000,226.000000 
z"/>
<path fill="#010101" opacity="1.000000" stroke="none" 
	d="
M1.000000,93.000000 
	C1.000000,62.406414 1.000000,31.812828 1.000000,1.000000 
	C31.353876,1.000000 61.708279,1.000000 92.931854,1.282271 
	C92.860649,2.058664 91.972237,2.800225 90.972198,3.010250 
	C72.278572,6.936230 55.526112,14.908141 40.904934,27.194557 
	C21.019070,43.904980 8.655139,65.161011 3.034537,90.453484 
	C2.822865,91.405991 1.698859,92.155754 1.000000,93.000000 
z"/>
<path fill="#C0CADE" opacity="1.000000" stroke="none" 
	d="
M1.000000,93.468658 
	C1.698859,92.155754 2.822865,91.405991 3.034537,90.453484 
	C8.655139,65.161011 21.019070,43.904980 40.904934,27.194557 
	C55.526112,14.908141 72.278572,6.936230 90.972198,3.010250 
	C91.972237,2.800225 92.860649,2.058664 93.400513,1.282271 
	C105.687561,1.000000 118.375122,1.000000 131.531342,1.000002 
	C132.952621,1.695302 133.817139,2.798195 134.870850,3.026002 
	C158.286209,8.088326 178.384537,19.057669 194.799713,36.573238 
	C208.273483,50.950249 217.208069,67.806961 221.811462,86.944191 
	C222.223053,88.655273 221.967422,90.526855 221.611511,92.547615 
	C220.787949,91.747345 220.217010,90.757851 219.984177,89.694321 
	C214.390900,64.146881 201.254074,43.130142 180.850571,27.029362 
	C155.339767,6.898317 126.087143,-0.340055 94.105881,5.132252 
	C62.216644,10.588812 37.475479,27.490429 20.179453,54.738415 
	C7.139990,75.280655 1.826190,97.861916 3.839535,122.297035 
	C6.490218,154.467224 20.378128,180.526550 45.618542,200.334091 
	C67.547638,217.543045 92.611893,225.152679 120.589973,223.133057 
	C155.015121,220.648041 182.106247,204.993866 202.220490,177.399582 
	C216.706161,157.527023 223.139679,134.941452 222.160919,110.272598 
	C222.011353,106.502762 222.719193,102.698906 223.030472,98.910789 
	C223.517487,99.157761 224.004486,99.404732 224.745758,99.325851 
	C225.000000,108.687561 225.000000,118.375122 225.000000,128.531342 
	C224.359528,129.445908 223.211563,129.832886 223.151978,130.346207 
	C221.056900,148.394180 214.219696,164.456085 203.554260,179.104950 
	C192.839447,193.821640 179.769623,205.906754 163.356781,213.644012 
	C153.759247,218.168411 143.230087,220.715012 133.126434,224.170059 
	C132.213455,224.482239 131.347260,224.931198 130.729660,225.658325 
	C118.645775,226.000000 106.291542,226.000000 93.468658,226.000000 
	C92.332680,225.324493 91.755280,224.191849 90.984909,224.040329 
	C71.672333,220.241730 54.471409,211.879379 39.700062,199.059113 
	C21.635639,183.380737 9.442317,163.866013 3.994019,140.362015 
	C3.427545,137.918228 2.387799,135.584167 1.283822,133.599594 
	C1.000000,120.645775 1.000000,107.291542 1.000000,93.468658 
z"/>
<path fill="#FDFEFE" opacity="1.000000" stroke="none" 
	d="
M222.979095,98.528107 
	C222.719193,102.698906 222.011353,106.502762 222.160919,110.272598 
	C223.139679,134.941452 216.706161,157.527023 202.220490,177.399582 
	C182.106247,204.993866 155.015121,220.648041 120.589973,223.133057 
	C92.611893,225.152679 67.547638,217.543045 45.618542,200.334091 
	C20.378128,180.526550 6.490218,154.467224 3.839535,122.297035 
	C1.826190,97.861916 7.139990,75.280655 20.179453,54.738415 
	C37.475479,27.490429 62.216644,10.588812 94.105881,5.132252 
	C126.087143,-0.340055 155.339767,6.898317 180.850571,27.029362 
	C201.254074,43.130142 214.390900,64.146881 219.984177,89.694321 
	C220.217010,90.757851 220.787949,91.747345 221.540298,92.903244 
	C222.228714,94.738579 222.578217,96.442009 222.979095,98.528107 
M178.072296,89.549698 
	C178.084442,85.572739 178.235748,81.590385 178.081650,77.619881 
	C177.678818,67.240784 166.810867,61.223457 157.979813,66.611244 
	C154.624405,68.658348 151.706757,71.422974 147.952286,74.026154 
	C136.282837,82.710396 124.613403,91.394646 112.957321,100.068947 
	C100.861488,91.163803 89.007652,82.436813 76.800003,73.153168 
	C74.003998,71.076767 71.292564,68.873070 68.395683,66.948517 
	C60.604939,61.772717 47.402065,66.646446 47.769463,77.502899 
	C47.914997,81.803474 47.989578,86.106438 47.858406,91.259567 
	C47.890369,91.844223 47.922333,92.428879 47.760883,93.932571 
	C47.742191,113.495316 47.682491,133.058151 47.728256,152.620743 
	C47.743179,159.000809 50.863464,162.197281 57.110985,162.260910 
	C63.402348,162.324997 69.696396,162.126114 76.564743,162.018173 
	C76.694374,161.682739 76.824013,161.347321 77.123421,160.086151 
	C77.178322,144.144119 77.233215,128.202087 77.830574,112.568298 
	C88.223846,120.294708 98.731110,127.874908 108.941864,135.835434 
	C112.059631,138.266098 114.038483,138.068558 116.993805,135.730652 
	C124.675766,129.653641 132.604858,123.886124 140.499725,118.082741 
	C143.140030,116.141922 145.975189,114.466209 148.645416,113.662582 
	C148.735397,129.435226 148.825394,145.207870 148.908447,161.621826 
	C149.276657,161.764984 149.644867,161.908142 150.926636,162.270386 
	C157.620499,162.168839 164.314377,162.067307 171.704453,161.961807 
	C172.039825,161.673752 172.375183,161.385696 173.377411,161.252350 
	C174.960587,158.743759 177.876785,156.255829 177.916016,153.723312 
	C178.229675,133.482407 177.998856,113.233086 178.078476,92.125610 
	C178.016388,91.547821 177.954285,90.970024 178.072296,89.549698 
z"/>
<path fill="#EA4436" opacity="1.000000" stroke="none" 
	d="
M148.721268,112.669312 
	C145.975189,114.466209 143.140030,116.141922 140.499725,118.082741 
	C132.604858,123.886124 124.675766,129.653641 116.993805,135.730652 
	C114.038483,138.068558 112.059631,138.266098 108.941864,135.835434 
	C98.731110,127.874908 88.223846,120.294708 77.398514,112.205025 
	C76.893425,111.681854 76.820412,111.521965 76.827667,110.877762 
	C76.989899,98.165573 77.071861,85.937698 77.153824,73.709831 
	C89.007652,82.436813 100.861488,91.163803 112.957321,100.068947 
	C124.613403,91.394646 136.282837,82.710396 148.330811,74.414093 
	C148.803574,87.040367 148.897797,99.278702 148.986237,111.676041 
	C148.980423,111.835037 149.043488,112.146919 148.915527,112.268387 
	C148.787552,112.389854 148.899292,112.724571 148.861481,112.689148 
	C148.823685,112.653725 148.721268,112.669304 148.721268,112.669312 
z"/>
<path fill="#35A853" opacity="1.000000" stroke="none" 
	d="
M149.043488,112.146919 
	C149.043488,112.146919 148.980423,111.835037 149.313599,111.512314 
	C158.771378,104.487404 167.895950,97.785210 177.055359,91.355255 
	C177.371735,92.080444 177.653275,92.533394 177.934814,92.986343 
	C177.998856,113.233086 178.229675,133.482407 177.916016,153.723312 
	C177.876785,156.255829 174.960587,158.743759 172.730072,161.260574 
	C171.724579,161.501114 171.366409,161.733444 171.008240,161.965759 
	C164.314377,162.067307 157.620499,162.168839 150.324326,161.946548 
	C149.453140,161.408646 149.184250,161.194580 148.915375,160.980515 
	C148.825394,145.207870 148.735397,129.435226 148.683350,113.165939 
	C148.721268,112.669304 148.823685,112.653725 148.995911,112.678528 
	C149.168137,112.703323 149.318359,112.405617 149.318359,112.405617 
	C149.318359,112.405617 149.043488,112.146919 149.043488,112.146919 
z"/>
<path fill="#4385F3" opacity="1.000000" stroke="none" 
	d="
M76.747391,111.362083 
	C76.820412,111.521965 76.893425,111.681854 77.127281,112.050903 
	C77.233215,128.202087 77.178322,144.144119 76.843246,160.686005 
	C76.322495,161.500656 76.131233,161.752869 75.989265,162.042465 
	C69.696396,162.126114 63.402348,162.324997 57.110985,162.260910 
	C50.863464,162.197281 47.743179,159.000809 47.728256,152.620743 
	C47.682491,133.058151 47.742191,113.495316 48.120544,93.357086 
	C48.981636,92.503014 49.483067,92.224426 50.313553,92.039757 
	C59.344204,98.543144 68.045799,104.952614 76.747391,111.362083 
z"/>
<path fill="#C5231F" opacity="1.000000" stroke="none" 
	d="
M76.827667,110.877762 
	C68.045799,104.952614 59.344204,98.543144 50.163006,91.768417 
	C49.154423,91.071548 48.625446,90.739929 48.096470,90.408318 
	C47.989578,86.106438 47.914997,81.803474 47.769463,77.502899 
	C47.402065,66.646446 60.604939,61.772717 68.395683,66.948517 
	C71.292564,68.873070 74.003998,71.076767 76.976913,73.431503 
	C77.071861,85.937698 76.989899,98.165573 76.827667,110.877762 
z"/>
<path fill="#FABC05" opacity="1.000000" stroke="none" 
	d="
M177.020538,91.083015 
	C167.895950,97.785210 158.771378,104.487404 149.319412,111.353317 
	C148.897797,99.278702 148.803574,87.040367 148.649460,74.331299 
	C151.706757,71.422974 154.624405,68.658348 157.979813,66.611244 
	C166.810867,61.223457 177.678818,67.240784 178.081650,77.619881 
	C178.235748,81.590385 178.084442,85.572739 177.729553,90.099960 
	C177.264725,90.794479 177.142639,90.938744 177.020538,91.083015 
z"/>
<path fill="#367FF3" opacity="1.000000" stroke="none" 
	d="
M47.977440,90.833939 
	C48.625446,90.739929 49.154423,91.071548 49.833946,91.674500 
	C49.483067,92.224426 48.981636,92.503014 48.217251,92.897568 
	C47.922333,92.428879 47.890369,91.844223 47.977440,90.833939 
z"/>
<path fill="#27A54A" opacity="1.000000" stroke="none" 
	d="
M177.055359,91.355255 
	C177.142639,90.938744 177.264725,90.794479 177.639496,90.521225 
	C177.954285,90.970024 178.016388,91.547821 178.006653,92.555977 
	C177.653275,92.533394 177.371735,92.080444 177.055359,91.355255 
z"/>
<path fill="#3881F4" opacity="1.000000" stroke="none" 
	d="
M76.277008,162.030319 
	C76.131233,161.752869 76.322495,161.500656 76.758362,161.148865 
	C76.824013,161.347321 76.694374,161.682739 76.277008,162.030319 
z"/>
<path fill="#26A54A" opacity="1.000000" stroke="none" 
	d="
M148.911911,161.301178 
	C149.184250,161.194580 149.453140,161.408646 149.867554,161.837006 
	C149.644867,161.908142 149.276657,161.764984 148.911911,161.301178 
z"/>
<path fill="#26A54A" opacity="1.000000" stroke="none" 
	d="
M171.356354,161.963791 
	C171.366409,161.733444 171.724579,161.501114 172.396637,161.183228 
	C172.375183,161.385696 172.039825,161.673752 171.356354,161.963791 
z"/>
<path fill="#26A54A" opacity="1.000000" stroke="none" 
	d="
M148.915527,112.268387 
	C149.043488,112.146919 149.318359,112.405617 149.318359,112.405617 
	C149.318359,112.405617 149.168137,112.703323 149.033722,112.713943 
	C148.899292,112.724571 148.787552,112.389854 148.915527,112.268387 
z"/>
</svg>