<svg version="1.1" id="Layer_1" xmlns="http://www.w3.org/2000/svg" xmlns:xlink="http://www.w3.org/1999/xlink" x="0px" y="0px"
	 width="100%" viewBox="0 0 225 225" enable-background="new 0 0 225 225" xml:space="preserve">
<path fill="#027FBB" opacity="1.000000" stroke="none" 
	d="
M101.000000,1.000000 
	C109.020897,1.000000 117.041801,1.000000 125.709091,1.358140 
	C174.533112,9.242132 206.401459,36.058353 221.534744,82.466080 
	C223.498779,88.488960 224.534363,94.814598 226.000000,101.000000 
	C226.000000,109.354233 226.000000,117.708466 225.645691,126.700851 
	C225.186096,127.823601 225.064255,128.305252 224.977829,128.793182 
	C216.658920,175.752090 189.963181,206.825531 144.532501,221.537003 
	C138.505280,223.488739 132.184708,224.534607 126.000000,226.000000 
	C117.645767,226.000000 109.291534,226.000000 100.299072,225.645599 
	C97.875183,224.921982 96.098511,224.500641 94.302567,224.191193 
	C49.238503,216.426193 13.442438,182.244186 3.780013,137.788208 
	C2.991871,134.162033 1.933048,130.594681 1.000000,127.000000 
	C1.000000,118.645767 1.000000,110.291534 1.348400,101.276337 
	C8.195502,52.894554 40.635799,15.969831 86.290001,4.383780 
	C91.165573,3.146465 96.095360,2.122786 101.000000,1.000000 
M78.502861,87.394814 
	C69.399384,87.394814 60.295910,87.394814 50.865562,87.394814 
	C50.865562,118.067154 50.865562,148.362640 50.865562,178.986374 
	C60.390671,178.986374 69.665222,178.986374 79.400894,178.299820 
	C79.598961,177.169525 79.968620,176.039429 79.969971,174.908905 
	C80.002937,147.378830 80.010109,119.848663 79.959412,92.318634 
	C79.956772,90.881531 79.401688,89.445442 78.502861,87.394814 
M156.442932,127.751289 
	C156.343292,143.879807 156.235657,160.008301 156.174500,176.136978 
	C156.172165,176.753448 156.618103,177.371628 157.310760,178.755768 
	C166.561615,178.755768 175.812485,178.755768 185.023361,178.755768 
	C185.023361,157.225967 185.501175,135.944565 184.843140,114.698341 
	C184.451950,102.068230 178.452133,91.799316 166.026932,87.182846 
	C153.013565,82.347855 140.526993,83.668602 129.694580,93.237465 
	C128.047943,94.692032 126.640259,96.417084 124.699211,98.462608 
	C124.502228,94.343384 124.340759,90.966927 124.199089,88.004517 
	C114.719383,88.004517 105.829231,88.004517 96.522682,88.716278 
	C96.349655,89.859451 96.026779,91.002457 96.025566,92.145813 
	C95.996803,119.311829 95.989487,146.477905 96.038567,173.643860 
	C96.041183,175.092941 96.572319,176.541061 97.309433,178.758606 
	C106.229378,178.758606 115.149323,178.758606 124.478226,178.758606 
	C124.478226,172.559189 124.433136,166.599701 124.487808,160.641129 
	C124.594620,149.000198 124.389069,137.339890 125.017067,125.725662 
	C125.490997,116.960648 131.075119,111.572716 138.951126,110.787827 
	C150.011581,109.685585 155.161301,114.365913 156.442932,127.751289 
M65.359459,41.588398 
	C54.601814,40.892548 45.015930,51.407673 48.612743,63.544937 
	C51.012009,71.641144 58.939701,76.542465 67.043236,75.248901 
	C75.419212,73.911850 81.357674,67.184975 81.547852,58.818607 
	C81.745842,50.108124 75.547562,43.216560 65.359459,41.588398 
z"/>
<path fill="#FDFEFE" opacity="1.000000" stroke="none" 
	d="
M100.531342,1.000000 
	C96.095360,2.122786 91.165573,3.146465 86.290001,4.383780 
	C40.635799,15.969831 8.195502,52.894554 1.348400,100.807693 
	C1.000000,67.739731 1.000000,34.479462 1.000000,1.000000 
	C34.020573,1.000000 67.041626,1.000000 100.531342,1.000000 
z"/>
<path fill="#FEFEFF" opacity="1.000000" stroke="none" 
	d="
M226.000000,100.531342 
	C224.534363,94.814598 223.498779,88.488960 221.534744,82.466080 
	C206.401459,36.058353 174.533112,9.242132 126.177750,1.358140 
	C159.260269,1.000000 192.520523,1.000000 226.000000,1.000000 
	C226.000000,34.020573 226.000000,67.041626 226.000000,100.531342 
z"/>
<path fill="#FEFEFE" opacity="1.000000" stroke="none" 
	d="
M1.000000,127.468658 
	C1.933048,130.594681 2.991871,134.162033 3.780013,137.788208 
	C13.442438,182.244186 49.238503,216.426193 94.302567,224.191193 
	C96.098511,224.500641 97.875183,224.921982 99.830414,225.645599 
	C67.073067,226.000000 34.146137,226.000000 1.000000,226.000000 
	C1.000000,193.312759 1.000000,160.625046 1.000000,127.468658 
z"/>
<path fill="#FEFEFE" opacity="1.000000" stroke="none" 
	d="
M126.468658,226.000000 
	C132.184708,224.534607 138.505280,223.488739 144.532501,221.537003 
	C189.963181,206.825531 216.658920,175.752090 224.977829,128.793182 
	C225.064255,128.305252 225.186096,127.823601 225.645691,127.169510 
	C226.000000,159.927292 226.000000,192.854599 226.000000,226.000000 
	C192.979431,226.000000 159.958374,226.000000 126.468658,226.000000 
z"/>
<path fill="#FDFEFE" opacity="1.000000" stroke="none" 
	d="
M96.939079,88.004517 
	C105.829231,88.004517 114.719383,88.004517 124.199089,88.004517 
	C124.340759,90.966927 124.502228,94.343384 124.699211,98.462608 
	C126.640259,96.417084 128.047943,94.692032 129.694580,93.237465 
	C140.526993,83.668602 153.013565,82.347855 166.026932,87.182846 
	C178.452133,91.799316 184.451950,102.068230 184.843140,114.698341 
	C185.501175,135.944565 185.023361,157.225967 185.023361,178.755768 
	C175.812485,178.755768 166.561615,178.755768 157.157547,177.909332 
	C156.939636,160.381622 156.874939,143.700363 156.810242,127.019104 
	C155.161301,114.365913 150.011581,109.685585 138.951126,110.787827 
	C131.075119,111.572716 125.490997,116.960648 125.017067,125.725662 
	C124.389069,137.339890 124.594620,149.000198 124.487808,160.641129 
	C124.433136,166.599701 124.478226,172.559189 124.478226,178.758606 
	C115.149323,178.758606 106.229378,178.758606 97.161270,177.911453 
	C96.988426,147.377701 96.963753,117.691109 96.939079,88.004517 
z"/>
<path fill="#FEFEFF" opacity="1.000000" stroke="none" 
	d="
M78.939774,178.986374 
	C69.665222,178.986374 60.390671,178.986374 50.865562,178.986374 
	C50.865562,148.362640 50.865562,118.067154 50.865562,87.394814 
	C60.295910,87.394814 69.399384,87.394814 78.759483,88.168518 
	C78.990662,118.956947 78.965218,148.971664 78.939774,178.986374 
z"/>
<path fill="#FCFDFE" opacity="1.000000" stroke="none" 
	d="
M65.746414,41.634193 
	C75.547562,43.216560 81.745842,50.108124 81.547852,58.818607 
	C81.357674,67.184975 75.419212,73.911850 67.043236,75.248901 
	C58.939701,76.542465 51.012009,71.641144 48.612743,63.544937 
	C45.015930,51.407673 54.601814,40.892548 65.746414,41.634193 
z"/>
<path fill="#0071B5" opacity="1.000000" stroke="none" 
	d="
M79.170334,178.643097 
	C78.965218,148.971664 78.990662,118.956947 79.059952,88.475555 
	C79.401688,89.445442 79.956772,90.881531 79.959412,92.318634 
	C80.010109,119.848663 80.002937,147.378830 79.969971,174.908905 
	C79.968620,176.039429 79.598961,177.169525 79.170334,178.643097 
z"/>
<path fill="#0074B6" opacity="1.000000" stroke="none" 
	d="
M96.730881,88.360397 
	C96.963753,117.691109 96.988426,147.377701 96.935257,177.526978 
	C96.572319,176.541061 96.041183,175.092941 96.038567,173.643860 
	C95.989487,146.477905 95.996803,119.311829 96.025566,92.145813 
	C96.026779,91.002457 96.349655,89.859451 96.730881,88.360397 
z"/>
<path fill="#0073B6" opacity="1.000000" stroke="none" 
	d="
M156.626587,127.385193 
	C156.874939,143.700363 156.939636,160.381622 156.929749,177.525940 
	C156.618103,177.371628 156.172165,176.753448 156.174500,176.136978 
	C156.235657,160.008301 156.343292,143.879807 156.626587,127.385193 
z"/>
</svg>